<mxfile host="Electron" agent="Mozilla/5.0 (Windows NT 10.0; Win64; x64) AppleWebKit/537.36 (KHTML, like Gecko) draw.io/26.2.15 Chrome/134.0.6998.205 Electron/35.2.1 Safari/537.36" version="26.2.15">
  <diagram name="第 1 页" id="47uNOOpgvLLNZsxWTuy7">
    <mxGraphModel dx="1042" dy="626" grid="1" gridSize="10" guides="1" tooltips="1" connect="1" arrows="1" fold="1" page="1" pageScale="1" pageWidth="827" pageHeight="1169" math="0" shadow="0">
      <root>
        <mxCell id="0" />
        <mxCell id="1" parent="0" />
        <mxCell id="iiQVRqvCAzXcCpgYWNuF-1" value="&lt;b&gt;顶层&lt;/b&gt;" style="rounded=0;whiteSpace=wrap;html=1;fillColor=none;dashed=1;movable=1;resizable=1;rotatable=1;deletable=1;editable=1;locked=0;connectable=1;spacingLeft=-590;spacingBottom=-30;align=left;labelPosition=right;verticalLabelPosition=top;verticalAlign=bottom;fontSize=16;fontFamily=黑体;" parent="1" vertex="1">
          <mxGeometry x="120" y="190" width="600" height="270" as="geometry" />
        </mxCell>
        <mxCell id="SPv8F6kg22MazdFrGzCW-3" value="" style="rounded=0;whiteSpace=wrap;html=1;dashed=1;gradientColor=none;fillColor=none;" parent="1" vertex="1">
          <mxGeometry x="130" y="500" width="220" height="130" as="geometry" />
        </mxCell>
        <mxCell id="SPv8F6kg22MazdFrGzCW-4" value="" style="rounded=0;whiteSpace=wrap;html=1;dashed=1;gradientColor=none;fillColor=none;" parent="1" vertex="1">
          <mxGeometry x="370" y="500" width="100" height="60" as="geometry" />
        </mxCell>
        <mxCell id="SPv8F6kg22MazdFrGzCW-12" value="" style="endArrow=none;dashed=1;html=1;rounded=0;" parent="1" edge="1">
          <mxGeometry width="50" height="50" relative="1" as="geometry">
            <mxPoint x="370" y="630" as="sourcePoint" />
            <mxPoint x="370" y="630" as="targetPoint" />
            <Array as="points">
              <mxPoint x="710" y="630" />
              <mxPoint x="710" y="500" />
              <mxPoint x="490" y="500" />
              <mxPoint x="490" y="570" />
              <mxPoint x="370" y="570" />
            </Array>
          </mxGeometry>
        </mxCell>
        <mxCell id="Q8NkdvuxnSdpKll4Dcmh-27" value="BMI088&lt;div&gt;陀螺仪&lt;/div&gt;" style="rounded=0;whiteSpace=wrap;html=1;fillColor=#dae8fc;strokeColor=#6c8ebf;" parent="1" vertex="1">
          <mxGeometry x="260" y="510" width="80" height="40" as="geometry" />
        </mxCell>
        <mxCell id="Q8NkdvuxnSdpKll4Dcmh-28" value="IST8310&lt;div&gt;磁力计&lt;/div&gt;" style="rounded=0;whiteSpace=wrap;html=1;fillColor=#dae8fc;strokeColor=#6c8ebf;" parent="1" vertex="1">
          <mxGeometry x="140" y="510" width="80" height="40" as="geometry" />
        </mxCell>
        <mxCell id="Q8NkdvuxnSdpKll4Dcmh-29" value="LED&lt;div&gt;呼吸灯&lt;/div&gt;" style="rounded=0;whiteSpace=wrap;html=1;fillColor=#f8cecc;strokeColor=#b85450;" parent="1" vertex="1">
          <mxGeometry x="620" y="580" width="80" height="40" as="geometry" />
        </mxCell>
        <mxCell id="Q8NkdvuxnSdpKll4Dcmh-30" value="Buzzer&lt;div&gt;蜂鸣器&lt;/div&gt;" style="rounded=0;whiteSpace=wrap;html=1;fillColor=#f8cecc;strokeColor=#b85450;" parent="1" vertex="1">
          <mxGeometry x="380" y="580" width="80" height="40" as="geometry" />
        </mxCell>
        <mxCell id="Q8NkdvuxnSdpKll4Dcmh-31" value="Heater&lt;div&gt;加热电阻丝&lt;/div&gt;" style="rounded=0;whiteSpace=wrap;html=1;fillColor=#f8cecc;strokeColor=#b85450;" parent="1" vertex="1">
          <mxGeometry x="500" y="580" width="80" height="40" as="geometry" />
        </mxCell>
        <mxCell id="Q8NkdvuxnSdpKll4Dcmh-32" value="A8S&lt;div&gt;接收器&lt;/div&gt;" style="rounded=0;whiteSpace=wrap;html=1;fillColor=#dae8fc;strokeColor=#6c8ebf;" parent="1" vertex="1">
          <mxGeometry x="260" y="580" width="80" height="40" as="geometry" />
        </mxCell>
        <mxCell id="Q8NkdvuxnSdpKll4Dcmh-33" value="HT04&lt;div&gt;关节电机&lt;/div&gt;" style="rounded=0;whiteSpace=wrap;html=1;fillColor=#f8cecc;strokeColor=#b85450;" parent="1" vertex="1">
          <mxGeometry x="620" y="510" width="80" height="40" as="geometry" />
        </mxCell>
        <mxCell id="Q8NkdvuxnSdpKll4Dcmh-34" value="STM32&lt;div&gt;主控芯片&lt;/div&gt;" style="rounded=0;whiteSpace=wrap;html=1;fillColor=#d5e8d4;strokeColor=#82b366;" parent="1" vertex="1">
          <mxGeometry x="380" y="510" width="80" height="40" as="geometry" />
        </mxCell>
        <mxCell id="9sZqMq_r8qUG7EIoNMO_-2" value="Encoder&lt;div&gt;电机编码器&lt;/div&gt;" style="rounded=0;whiteSpace=wrap;html=1;fillColor=#dae8fc;strokeColor=#6c8ebf;" parent="1" vertex="1">
          <mxGeometry x="140" y="580" width="80" height="40" as="geometry" />
        </mxCell>
        <mxCell id="SPv8F6kg22MazdFrGzCW-2" value="MF9025&lt;div&gt;轮电机&lt;/div&gt;" style="rounded=0;whiteSpace=wrap;html=1;fillColor=#f8cecc;strokeColor=#b85450;" parent="1" vertex="1">
          <mxGeometry x="500" y="510" width="80" height="40" as="geometry" />
        </mxCell>
        <mxCell id="Q8NkdvuxnSdpKll4Dcmh-43" value="Entity" style="swimlane;fontStyle=0;childLayout=stackLayout;horizontal=1;startSize=26;fillColor=none;horizontalStack=0;resizeParent=1;resizeParentMax=0;resizeLast=0;collapsible=1;marginBottom=0;whiteSpace=wrap;html=1;" parent="1" vertex="1">
          <mxGeometry x="360" y="230" width="120" height="60" as="geometry">
            <mxRectangle x="440" y="160" width="70" height="30" as="alternateBounds" />
          </mxGeometry>
        </mxCell>
        <mxCell id="Q8NkdvuxnSdpKll4Dcmh-44" value="+ Update()" style="text;strokeColor=none;fillColor=none;align=left;verticalAlign=top;spacingLeft=4;spacingRight=4;overflow=hidden;rotatable=0;points=[[0,0.5],[1,0.5]];portConstraint=eastwest;whiteSpace=wrap;html=1;" parent="Q8NkdvuxnSdpKll4Dcmh-43" vertex="1">
          <mxGeometry y="26" width="120" height="34" as="geometry" />
        </mxCell>
        <mxCell id="Q8NkdvuxnSdpKll4Dcmh-48" value="RobotEngine" style="swimlane;fontStyle=0;childLayout=stackLayout;horizontal=1;startSize=26;fillColor=none;horizontalStack=0;resizeParent=1;resizeParentMax=0;resizeLast=0;collapsible=1;marginBottom=0;whiteSpace=wrap;html=1;" parent="1" vertex="1">
          <mxGeometry x="130" y="230" width="120" height="80" as="geometry" />
        </mxCell>
        <mxCell id="iiQVRqvCAzXcCpgYWNuF-2" value="&lt;font style=&quot;font-size: 11px;&quot;&gt;按顺序驱动框架运行&lt;/font&gt;" style="text;align=left;verticalAlign=top;spacingLeft=4;spacingRight=4;overflow=hidden;rotatable=0;points=[[0,0.5],[1,0.5]];portConstraint=eastwest;whiteSpace=wrap;html=1;strokeColor=default;" parent="Q8NkdvuxnSdpKll4Dcmh-48" vertex="1">
          <mxGeometry y="26" width="120" height="26" as="geometry" />
        </mxCell>
        <mxCell id="Q8NkdvuxnSdpKll4Dcmh-49" value="+ Tick()" style="text;strokeColor=none;fillColor=none;align=left;verticalAlign=top;spacingLeft=4;spacingRight=4;overflow=hidden;rotatable=0;points=[[0,0.5],[1,0.5]];portConstraint=eastwest;whiteSpace=wrap;html=1;" parent="Q8NkdvuxnSdpKll4Dcmh-48" vertex="1">
          <mxGeometry y="52" width="120" height="28" as="geometry" />
        </mxCell>
        <mxCell id="Q8NkdvuxnSdpKll4Dcmh-50" value="" style="endArrow=diamondThin;endFill=0;endSize=16;html=1;rounded=0;" parent="1" edge="1">
          <mxGeometry width="160" relative="1" as="geometry">
            <mxPoint x="360" y="255.76" as="sourcePoint" />
            <mxPoint x="250" y="256" as="targetPoint" />
          </mxGeometry>
        </mxCell>
        <mxCell id="Q8NkdvuxnSdpKll4Dcmh-72" value="" style="edgeStyle=elbowEdgeStyle;rounded=0;orthogonalLoop=1;jettySize=auto;html=1;endArrow=block;endFill=0;endSize=10;elbow=vertical;" parent="1" source="Q8NkdvuxnSdpKll4Dcmh-70" target="Q8NkdvuxnSdpKll4Dcmh-44" edge="1">
          <mxGeometry relative="1" as="geometry" />
        </mxCell>
        <mxCell id="Q8NkdvuxnSdpKll4Dcmh-70" value="SensorEntity" style="swimlane;fontStyle=0;childLayout=stackLayout;horizontal=1;startSize=26;fillColor=#dae8fc;horizontalStack=0;resizeParent=1;resizeParentMax=0;resizeLast=0;collapsible=1;marginBottom=0;whiteSpace=wrap;html=1;strokeColor=#6c8ebf;" parent="1" vertex="1">
          <mxGeometry x="130" y="350" width="120" height="86" as="geometry">
            <mxRectangle x="440" y="160" width="70" height="30" as="alternateBounds" />
          </mxGeometry>
        </mxCell>
        <mxCell id="SPv8F6kg22MazdFrGzCW-35" value="&lt;font style=&quot;font-size: 11px;&quot;&gt;获取环境数据&lt;/font&gt;" style="text;strokeColor=#6c8ebf;fillColor=#dae8fc;align=left;verticalAlign=top;spacingLeft=4;spacingRight=4;overflow=hidden;rotatable=0;points=[[0,0.5],[1,0.5]];portConstraint=eastwest;whiteSpace=wrap;html=1;" parent="Q8NkdvuxnSdpKll4Dcmh-70" vertex="1">
          <mxGeometry y="26" width="120" height="26" as="geometry" />
        </mxCell>
        <mxCell id="Q8NkdvuxnSdpKll4Dcmh-71" value="+ Update()" style="text;strokeColor=#6c8ebf;fillColor=#dae8fc;align=left;verticalAlign=top;spacingLeft=4;spacingRight=4;overflow=hidden;rotatable=0;points=[[0,0.5],[1,0.5]];portConstraint=eastwest;whiteSpace=wrap;html=1;" parent="Q8NkdvuxnSdpKll4Dcmh-70" vertex="1">
          <mxGeometry y="52" width="120" height="34" as="geometry" />
        </mxCell>
        <mxCell id="Q8NkdvuxnSdpKll4Dcmh-75" value="" style="edgeStyle=elbowEdgeStyle;rounded=0;orthogonalLoop=1;jettySize=auto;html=1;endArrow=block;endFill=0;endSize=10;elbow=vertical;" parent="1" source="Q8NkdvuxnSdpKll4Dcmh-73" target="Q8NkdvuxnSdpKll4Dcmh-44" edge="1">
          <mxGeometry relative="1" as="geometry" />
        </mxCell>
        <mxCell id="Q8NkdvuxnSdpKll4Dcmh-73" value="ActuatorEntity" style="swimlane;fontStyle=0;childLayout=stackLayout;horizontal=1;startSize=26;fillColor=#f8cecc;horizontalStack=0;resizeParent=1;resizeParentMax=0;resizeLast=0;collapsible=1;marginBottom=0;whiteSpace=wrap;html=1;strokeColor=#b85450;" parent="1" vertex="1">
          <mxGeometry x="590" y="350" width="120" height="86" as="geometry">
            <mxRectangle x="440" y="160" width="70" height="30" as="alternateBounds" />
          </mxGeometry>
        </mxCell>
        <mxCell id="SPv8F6kg22MazdFrGzCW-26" value="&lt;font style=&quot;font-size: 11px;&quot;&gt;执行控制指令&lt;/font&gt;" style="text;strokeColor=#b85450;fillColor=#f8cecc;align=left;verticalAlign=top;spacingLeft=4;spacingRight=4;overflow=hidden;rotatable=0;points=[[0,0.5],[1,0.5]];portConstraint=eastwest;whiteSpace=wrap;html=1;" parent="Q8NkdvuxnSdpKll4Dcmh-73" vertex="1">
          <mxGeometry y="26" width="120" height="26" as="geometry" />
        </mxCell>
        <mxCell id="Q8NkdvuxnSdpKll4Dcmh-74" value="+ Update()" style="text;strokeColor=#b85450;fillColor=#f8cecc;align=left;verticalAlign=top;spacingLeft=4;spacingRight=4;overflow=hidden;rotatable=0;points=[[0,0.5],[1,0.5]];portConstraint=eastwest;whiteSpace=wrap;html=1;" parent="Q8NkdvuxnSdpKll4Dcmh-73" vertex="1">
          <mxGeometry y="52" width="120" height="34" as="geometry" />
        </mxCell>
        <mxCell id="Q8NkdvuxnSdpKll4Dcmh-81" value="" style="edgeStyle=orthogonalEdgeStyle;rounded=0;orthogonalLoop=1;jettySize=auto;html=1;endArrow=block;endFill=0;endSize=10;" parent="1" edge="1">
          <mxGeometry relative="1" as="geometry">
            <mxPoint x="419.92" y="350.00000000000006" as="sourcePoint" />
            <mxPoint x="419.92" y="290.00000000000006" as="targetPoint" />
            <Array as="points">
              <mxPoint x="420" y="320" />
              <mxPoint x="420" y="320" />
            </Array>
          </mxGeometry>
        </mxCell>
        <mxCell id="Q8NkdvuxnSdpKll4Dcmh-79" value="ControllerEntity" style="swimlane;fontStyle=0;childLayout=stackLayout;horizontal=1;startSize=26;fillColor=#d5e8d4;horizontalStack=0;resizeParent=1;resizeParentMax=0;resizeLast=0;collapsible=1;marginBottom=0;whiteSpace=wrap;html=1;strokeColor=#82b366;" parent="1" vertex="1">
          <mxGeometry x="360" y="350" width="120" height="86" as="geometry">
            <mxRectangle x="440" y="160" width="70" height="30" as="alternateBounds" />
          </mxGeometry>
        </mxCell>
        <mxCell id="SPv8F6kg22MazdFrGzCW-36" value="&lt;font style=&quot;font-size: 11px;&quot;&gt;计算控制指令&lt;/font&gt;" style="text;strokeColor=#82b366;fillColor=#d5e8d4;align=left;verticalAlign=top;spacingLeft=4;spacingRight=4;overflow=hidden;rotatable=0;points=[[0,0.5],[1,0.5]];portConstraint=eastwest;whiteSpace=wrap;html=1;" parent="Q8NkdvuxnSdpKll4Dcmh-79" vertex="1">
          <mxGeometry y="26" width="120" height="26" as="geometry" />
        </mxCell>
        <mxCell id="Q8NkdvuxnSdpKll4Dcmh-80" value="+ Update()" style="text;strokeColor=#82b366;fillColor=#d5e8d4;align=left;verticalAlign=top;spacingLeft=4;spacingRight=4;overflow=hidden;rotatable=0;points=[[0,0.5],[1,0.5]];portConstraint=eastwest;whiteSpace=wrap;html=1;" parent="Q8NkdvuxnSdpKll4Dcmh-79" vertex="1">
          <mxGeometry y="52" width="120" height="34" as="geometry" />
        </mxCell>
        <mxCell id="SPv8F6kg22MazdFrGzCW-23" value="" style="group" parent="1" vertex="1" connectable="0">
          <mxGeometry x="500" y="200" width="210" height="90" as="geometry" />
        </mxCell>
        <mxCell id="SPv8F6kg22MazdFrGzCW-21" value="" style="rounded=0;whiteSpace=wrap;html=1;fillColor=none;dashed=1;" parent="SPv8F6kg22MazdFrGzCW-23" vertex="1">
          <mxGeometry width="210" height="90" as="geometry" />
        </mxCell>
        <mxCell id="SPv8F6kg22MazdFrGzCW-13" value="传感器" style="rounded=0;whiteSpace=wrap;html=1;fillColor=#dae8fc;strokeColor=#6c8ebf;" parent="SPv8F6kg22MazdFrGzCW-23" vertex="1">
          <mxGeometry x="50" y="10" width="70" height="30" as="geometry" />
        </mxCell>
        <mxCell id="SPv8F6kg22MazdFrGzCW-17" value="控制器" style="rounded=0;whiteSpace=wrap;html=1;fillColor=#d5e8d4;strokeColor=#82b366;" parent="SPv8F6kg22MazdFrGzCW-23" vertex="1">
          <mxGeometry x="130" y="10" width="70" height="30" as="geometry" />
        </mxCell>
        <mxCell id="SPv8F6kg22MazdFrGzCW-18" value="执行器" style="rounded=0;whiteSpace=wrap;html=1;fillColor=#f8cecc;strokeColor=#b85450;" parent="SPv8F6kg22MazdFrGzCW-23" vertex="1">
          <mxGeometry x="50" y="50" width="70" height="30" as="geometry" />
        </mxCell>
        <mxCell id="SPv8F6kg22MazdFrGzCW-20" value="STM外设" style="rounded=0;whiteSpace=wrap;html=1;fillColor=#fff2cc;strokeColor=#d6b656;" parent="SPv8F6kg22MazdFrGzCW-23" vertex="1">
          <mxGeometry x="130" y="50" width="70" height="30" as="geometry" />
        </mxCell>
        <mxCell id="SPv8F6kg22MazdFrGzCW-22" value="图例" style="text;html=1;align=center;verticalAlign=middle;resizable=0;points=[];autosize=1;strokeColor=none;fillColor=none;" parent="SPv8F6kg22MazdFrGzCW-23" vertex="1">
          <mxGeometry y="30" width="50" height="30" as="geometry" />
        </mxCell>
        <mxCell id="SPv8F6kg22MazdFrGzCW-43" value="" style="shape=flexArrow;endArrow=block;html=1;rounded=0;startFill=0;startArrow=none;" parent="1" edge="1">
          <mxGeometry width="50" height="50" relative="1" as="geometry">
            <mxPoint x="260" y="400" as="sourcePoint" />
            <mxPoint x="350" y="400" as="targetPoint" />
          </mxGeometry>
        </mxCell>
        <mxCell id="SPv8F6kg22MazdFrGzCW-45" value="数据" style="edgeLabel;html=1;align=center;verticalAlign=middle;resizable=0;points=[];labelBackgroundColor=none;" parent="SPv8F6kg22MazdFrGzCW-43" vertex="1" connectable="0">
          <mxGeometry relative="1" as="geometry">
            <mxPoint x="-5" y="-11" as="offset" />
          </mxGeometry>
        </mxCell>
        <mxCell id="SPv8F6kg22MazdFrGzCW-46" value="" style="shape=flexArrow;endArrow=block;html=1;rounded=0;startFill=0;startArrow=none;" parent="1" edge="1">
          <mxGeometry width="50" height="50" relative="1" as="geometry">
            <mxPoint x="495" y="400" as="sourcePoint" />
            <mxPoint x="585" y="400" as="targetPoint" />
          </mxGeometry>
        </mxCell>
        <mxCell id="SPv8F6kg22MazdFrGzCW-47" value="指令" style="edgeLabel;html=1;align=center;verticalAlign=middle;resizable=0;points=[];labelBackgroundColor=none;" parent="SPv8F6kg22MazdFrGzCW-46" vertex="1" connectable="0">
          <mxGeometry relative="1" as="geometry">
            <mxPoint x="-5" y="-11" as="offset" />
          </mxGeometry>
        </mxCell>
        <mxCell id="SPv8F6kg22MazdFrGzCW-50" value="" style="endArrow=classic;html=1;rounded=0;" parent="1" edge="1">
          <mxGeometry width="50" height="50" relative="1" as="geometry">
            <mxPoint x="189.85999999999999" y="490" as="sourcePoint" />
            <mxPoint x="189.85999999999999" y="440" as="targetPoint" />
          </mxGeometry>
        </mxCell>
        <mxCell id="SPv8F6kg22MazdFrGzCW-52" value="抽象" style="edgeLabel;html=1;align=center;verticalAlign=middle;resizable=0;points=[];" parent="SPv8F6kg22MazdFrGzCW-50" vertex="1" connectable="0">
          <mxGeometry x="-0.2608" y="3" relative="1" as="geometry">
            <mxPoint x="-17" y="-21" as="offset" />
          </mxGeometry>
        </mxCell>
        <mxCell id="SPv8F6kg22MazdFrGzCW-53" value="" style="endArrow=classic;html=1;rounded=0;" parent="1" edge="1">
          <mxGeometry width="50" height="50" relative="1" as="geometry">
            <mxPoint x="419.79999999999995" y="490" as="sourcePoint" />
            <mxPoint x="419.79999999999995" y="440" as="targetPoint" />
          </mxGeometry>
        </mxCell>
        <mxCell id="SPv8F6kg22MazdFrGzCW-54" value="抽象" style="edgeLabel;html=1;align=center;verticalAlign=middle;resizable=0;points=[];" parent="SPv8F6kg22MazdFrGzCW-53" vertex="1" connectable="0">
          <mxGeometry x="-0.2608" y="3" relative="1" as="geometry">
            <mxPoint x="-17" y="-21" as="offset" />
          </mxGeometry>
        </mxCell>
        <mxCell id="SPv8F6kg22MazdFrGzCW-55" value="" style="endArrow=classic;html=1;rounded=0;" parent="1" edge="1">
          <mxGeometry width="50" height="50" relative="1" as="geometry">
            <mxPoint x="649.8" y="490" as="sourcePoint" />
            <mxPoint x="649.8" y="440" as="targetPoint" />
          </mxGeometry>
        </mxCell>
        <mxCell id="SPv8F6kg22MazdFrGzCW-56" value="抽象" style="edgeLabel;html=1;align=center;verticalAlign=middle;resizable=0;points=[];" parent="SPv8F6kg22MazdFrGzCW-55" vertex="1" connectable="0">
          <mxGeometry x="-0.2608" y="3" relative="1" as="geometry">
            <mxPoint x="-17" y="-21" as="offset" />
          </mxGeometry>
        </mxCell>
        <mxCell id="c6ODyTzPDe4TlRXVy7t9-1" value="" style="group" parent="1" vertex="1" connectable="0">
          <mxGeometry x="120" y="670" width="600" height="160" as="geometry" />
        </mxCell>
        <mxCell id="uLkosni1qZ47WeshdBUM-1" value="&lt;font style=&quot;font-size: 17px;&quot;&gt;&lt;b&gt;底层&lt;/b&gt;&lt;/font&gt;" style="rounded=0;whiteSpace=wrap;html=1;fillColor=none;dashed=1;movable=1;resizable=1;rotatable=1;deletable=1;editable=1;locked=0;connectable=1;spacingLeft=-590;labelPosition=right;verticalLabelPosition=top;align=left;verticalAlign=bottom;horizontal=1;spacingBottom=-30;spacingRight=0;fontFamily=黑体;" parent="c6ODyTzPDe4TlRXVy7t9-1" vertex="1">
          <mxGeometry width="600" height="160" as="geometry" />
        </mxCell>
        <mxCell id="Q8NkdvuxnSdpKll4Dcmh-16" value="DMA" style="rounded=0;whiteSpace=wrap;html=1;fillColor=#fff2cc;strokeColor=#d6b656;" parent="c6ODyTzPDe4TlRXVy7t9-1" vertex="1">
          <mxGeometry x="260" y="100" width="80" height="40" as="geometry" />
        </mxCell>
        <mxCell id="Q8NkdvuxnSdpKll4Dcmh-17" value="GPIO" style="rounded=0;whiteSpace=wrap;html=1;fillColor=#fff2cc;strokeColor=#d6b656;" parent="c6ODyTzPDe4TlRXVy7t9-1" vertex="1">
          <mxGeometry x="140" y="40" width="80" height="40" as="geometry" />
        </mxCell>
        <mxCell id="Q8NkdvuxnSdpKll4Dcmh-19" value="TIM" style="rounded=0;whiteSpace=wrap;html=1;fillColor=#fff2cc;strokeColor=#d6b656;" parent="c6ODyTzPDe4TlRXVy7t9-1" vertex="1">
          <mxGeometry x="140" y="100" width="80" height="40" as="geometry" />
        </mxCell>
        <mxCell id="Q8NkdvuxnSdpKll4Dcmh-20" value="NVIC" style="rounded=0;whiteSpace=wrap;html=1;fillColor=#fff2cc;strokeColor=#d6b656;" parent="c6ODyTzPDe4TlRXVy7t9-1" vertex="1">
          <mxGeometry x="20" y="40" width="80" height="40" as="geometry" />
        </mxCell>
        <mxCell id="Q8NkdvuxnSdpKll4Dcmh-21" value="RCC" style="rounded=0;whiteSpace=wrap;html=1;fillColor=#fff2cc;strokeColor=#d6b656;" parent="c6ODyTzPDe4TlRXVy7t9-1" vertex="1">
          <mxGeometry x="20" y="100" width="80" height="40" as="geometry" />
        </mxCell>
        <mxCell id="Q8NkdvuxnSdpKll4Dcmh-22" value="CAN" style="rounded=0;whiteSpace=wrap;html=1;fillColor=#fff2cc;strokeColor=#d6b656;" parent="c6ODyTzPDe4TlRXVy7t9-1" vertex="1">
          <mxGeometry x="380" y="100" width="80" height="40" as="geometry" />
        </mxCell>
        <mxCell id="Q8NkdvuxnSdpKll4Dcmh-23" value="I2C" style="rounded=0;whiteSpace=wrap;html=1;fillColor=#fff2cc;strokeColor=#d6b656;" parent="c6ODyTzPDe4TlRXVy7t9-1" vertex="1">
          <mxGeometry x="500" y="100" width="80" height="40" as="geometry" />
        </mxCell>
        <mxCell id="Q8NkdvuxnSdpKll4Dcmh-24" value="ADC" style="rounded=0;whiteSpace=wrap;html=1;fillColor=#fff2cc;strokeColor=#d6b656;" parent="c6ODyTzPDe4TlRXVy7t9-1" vertex="1">
          <mxGeometry x="260" y="40" width="80" height="40" as="geometry" />
        </mxCell>
        <mxCell id="Q8NkdvuxnSdpKll4Dcmh-25" value="SPI" style="rounded=0;whiteSpace=wrap;html=1;fillColor=#fff2cc;strokeColor=#d6b656;" parent="c6ODyTzPDe4TlRXVy7t9-1" vertex="1">
          <mxGeometry x="500" y="40" width="80" height="40" as="geometry" />
        </mxCell>
        <mxCell id="Q8NkdvuxnSdpKll4Dcmh-26" value="USART" style="rounded=0;whiteSpace=wrap;html=1;fillColor=#fff2cc;strokeColor=#d6b656;" parent="c6ODyTzPDe4TlRXVy7t9-1" vertex="1">
          <mxGeometry x="380" y="40" width="80" height="40" as="geometry" />
        </mxCell>
        <mxCell id="BG0xN_x9Q6SEVWqoW0wB-1" value="&lt;b&gt;中间层&lt;/b&gt;" style="rounded=0;whiteSpace=wrap;html=1;fillColor=none;dashed=1;movable=1;resizable=1;rotatable=1;deletable=1;editable=1;locked=0;connectable=1;spacingLeft=-590;spacingBottom=-30;labelPosition=right;verticalLabelPosition=top;align=left;verticalAlign=bottom;fontSize=16;fontFamily=黑体;" parent="1" vertex="1">
          <mxGeometry x="120" y="470" width="600" height="180" as="geometry" />
        </mxCell>
      </root>
    </mxGraphModel>
  </diagram>
</mxfile>
